<?xml version="1.0" encoding="UTF-8"?><svg version="1.1" width="474px" height="148px" viewBox="0 0 474.0 148.0" xmlns="http://www.w3.org/2000/svg" xmlns:xlink="http://www.w3.org/1999/xlink"><defs><clipPath id="i0"><path d="M800,0 L800,600 L0,600 L0,0 L800,0 Z"></path></clipPath><clipPath id="i1"><path d="M15.4338867,0 L15.4338867,3.37998047 L9.75986328,3.37998047 L9.75986328,19.5875977 L5.66044922,19.5875977 L5.66044922,3.37998047 L0,3.37998047 L0,0 L15.4338867,0 Z"></path></clipPath><clipPath id="i2"><path d="M3.96367188,0 L3.96367188,7.54726563 L4.04511719,7.54726563 C4.79169922,5.74189453 6.32558594,4.73740234 8.51103516,4.73740234 C11.6602539,4.73740234 13.6149414,6.93642578 13.6149414,10.4521484 L13.6149414,19.5875977 L9.65126953,19.5875977 L9.65126953,11.2666016 C9.65126953,9.23046875 8.64677734,8.02236328 6.84140625,8.02236328 C5.09033203,8.02236328 3.96367188,9.35263672 3.96367188,11.2530273 L3.96367188,19.5875977 L0,19.5875977 L0,0 L3.96367188,0 Z"></path></clipPath><clipPath id="i3"><path d="M6.99072266,0 C11.2530273,0 13.9271484,2.89130859 13.9271484,7.28935547 L13.9271484,8.51103516 L3.909375,8.51103516 C3.95009766,10.8322266 5.2125,12.1896484 7.23505859,12.1896484 C8.86396484,12.1896484 9.85488281,11.29375 10.1399414,10.4792969 L10.1670898,10.3978516 L13.8049805,10.3978516 L13.7642578,10.547168 C13.3163086,12.6918945 11.3073242,15.1488281 7.15361328,15.1488281 C2.70126953,15.1488281 0,12.2575195 0,7.6015625 L0,7.58798828 C0,2.95917969 2.72841797,0 6.99072266,0 Z M7.05859375,2.95917969 C5.4296875,2.95917969 4.20800781,4.04511719 3.95009766,6.01337891 L10.1263672,6.01337891 C9.88203125,4.00439453 8.70107422,2.95917969 7.05859375,2.95917969 Z"></path></clipPath><clipPath id="i4"><path d="M7.87304688,0 C11.9996094,0 14.7551758,2.66054687 14.7551758,6.69208984 L14.7551758,6.71923828 C14.7551758,10.7507813 11.9996094,13.4113281 7.87304688,13.4113281 L4.09941406,13.4113281 L4.09941406,19.5875977 L0,19.5875977 L0,0 Z M6.86855469,3.24423828 L4.09941406,3.24423828 L4.09941406,10.2078125 L6.86855469,10.2078125 C9.21689453,10.2078125 10.6014648,8.95898437 10.6014648,6.7328125 L10.6014648,6.70566406 C10.6014648,4.47949219 9.21689453,3.24423828 6.86855469,3.24423828 Z"></path></clipPath><clipPath id="i5"><path d="M7.35722656,0 C7.79160156,0 8.19882813,0.0678710938 8.49746094,0.149316406 L8.49746094,3.63789063 C8.17167969,3.50214844 7.62871094,3.42070313 7.05859375,3.42070313 C5.10390625,3.42070313 3.96367188,4.58808594 3.96367188,6.70566406 L3.96367188,14.8501953 L0,14.8501953 L0,0.298632813 L3.96367188,0.298632813 L3.96367188,2.83701172 L4.04511719,2.83701172 C4.47949219,1.04521484 5.66044922,0 7.35722656,0 Z"></path></clipPath><clipPath id="i6"><path d="M7.19433594,0 C11.5516602,0 14.4158203,2.83701172 14.4158203,7.54726562 L14.4158203,7.57441406 C14.4158203,12.3253906 11.605957,15.1488281 7.20791016,15.1488281 C2.78271484,15.1488281 0,12.3118164 0,7.57441406 L0,7.54726562 C0,2.86416016 2.85058594,0 7.19433594,0 Z M7.19433594,3.10849609 C5.28037109,3.10849609 4.03154297,4.73740234 4.03154297,7.54726562 L4.03154297,7.57441406 C4.03154297,10.425 5.26679688,12.040332 7.22148438,12.040332 C9.14902344,12.040332 10.3842773,10.4114258 10.3842773,7.57441406 L10.3842773,7.54726562 C10.3842773,4.73740234 9.121875,3.10849609 7.19433594,3.10849609 Z"></path></clipPath><clipPath id="i7"><path d="M14.4429688,0 L14.4429688,19.5875977 L10.4792969,19.5875977 L10.4792969,17.1035156 L10.3978516,17.1035156 C9.62412109,18.8274414 8.02236328,19.8862305 5.91835938,19.8862305 C2.25332031,19.8862305 0,17.0356445 0,12.3118164 L0,12.2982422 C0,7.56083984 2.25332031,4.73740234 5.91835938,4.73740234 C7.98164063,4.73740234 9.61054688,5.79619141 10.3978516,7.56083984 L10.4792969,7.56083984 L10.4792969,0 L14.4429688,0 Z M7.24863281,8.02236328 C5.28037109,8.02236328 4.03154297,9.63769531 4.03154297,12.2982422 L4.03154297,12.3118164 C4.03154297,14.9587891 5.26679688,16.6012695 7.24863281,16.6012695 C9.17617188,16.6012695 10.4928711,14.9452148 10.4928711,12.3118164 L10.4928711,12.2982422 C10.4928711,9.67841797 9.16259766,8.02236328 7.24863281,8.02236328 Z"></path></clipPath><clipPath id="i8"><path d="M3.96367188,0 L3.96367188,8.56533203 C3.96367188,10.4657227 4.85957031,11.5652344 6.63779297,11.5652344 C8.41601563,11.5652344 9.54267578,10.2621094 9.54267578,8.36171875 L9.54267578,0 L13.5063477,0 L13.5063477,14.5515625 L9.54267578,14.5515625 L9.54267578,12.1489258 L9.46123047,12.1489258 C8.71464844,13.8185547 7.22148438,14.8501953 5.02246094,14.8501953 C1.81894531,14.8501953 0,12.8004883 0,9.39335938 L0,0 L3.96367188,0 Z"></path></clipPath><clipPath id="i9"><path d="M7.14003906,0 C11.0901367,0 13.6013672,2.42978516 13.7506836,5.57900391 L13.7506836,5.67402344 L10.0720703,5.67402344 L10.0449219,5.55185547 C9.80058594,4.16728516 8.83681641,3.10849609 7.19433594,3.10849609 C5.25322266,3.10849609 4.03154297,4.778125 4.03154297,7.56083984 L4.03154297,7.57441406 C4.03154297,10.425 5.25322266,12.040332 7.20791016,12.040332 C8.79609375,12.040332 9.78701172,11.0629883 10.0584961,9.59697266 L10.0720703,9.47480469 L13.7642578,9.47480469 L13.7642578,9.55625 C13.5742188,12.7326172 11.0629883,15.1488281 7.18076172,15.1488281 C2.74199219,15.1488281 0,12.2575195 0,7.56083984 L0,7.54726562 C0,2.89130859 2.78271484,0 7.14003906,0 Z"></path></clipPath><clipPath id="i10"><path d="M6.02695313,0 L6.02695313,3.55644531 L8.6875,3.55644531 L8.6875,6.54277344 L6.02695313,6.54277344 L6.02695313,13.6013672 C6.02695313,14.9587891 6.63779297,15.4203125 7.83232422,15.4203125 C8.18525391,15.4203125 8.44316406,15.3795898 8.6875,15.3524414 L8.6875,18.2573242 C8.23955078,18.3251953 7.6015625,18.4066406 6.77353516,18.4066406 C3.54287109,18.4066406 2.02255859,17.1578125 2.02255859,14.0357422 L2.02255859,6.54277344 L0,6.54277344 L0,3.55644531 L2.02255859,3.55644531 L2.02255859,0 L6.02695313,0 Z"></path></clipPath><clipPath id="i11"><path d="M4.09941406,5.99980469 L4.09941406,20.5513672 L0.135742188,20.5513672 L0.135742188,5.99980469 L4.09941406,5.99980469 Z M2.11757812,0 C3.31210938,0 4.23515625,0.936621094 4.23515625,2.06328125 C4.23515625,3.18994141 3.31210938,4.1265625 2.11757812,4.1265625 C0.923046875,4.1265625 0,3.18994141 0,2.06328125 C0,0.936621094 0.923046875,0 2.11757812,0 Z"></path></clipPath><clipPath id="i12"><path d="M7.19433594,0 C11.5516602,0 14.4158203,2.83701172 14.4158203,7.54726562 L14.4158203,7.57441406 C14.4158203,12.3253906 11.605957,15.1488281 7.20791016,15.1488281 C2.78271484,15.1488281 0,12.3118164 0,7.57441406 L0,7.54726562 C0,2.86416016 2.85058594,0 7.19433594,0 Z M7.19433594,3.10849609 C5.28037109,3.10849609 4.03154297,4.73740234 4.03154297,7.54726562 L4.03154297,7.57441406 C4.03154297,10.425 5.26679688,12.040332 7.22148438,12.040332 C9.14902344,12.040332 10.3842773,10.4114258 10.3842773,7.57441406 L10.3842773,7.54726562 C10.3842773,4.73740234 9.121875,3.10849609 7.19433594,3.10849609 Z"></path></clipPath><clipPath id="i13"><path d="M8.48388672,0 C11.6874023,0 13.5063477,2.04970703 13.5063477,5.45683594 L13.5063477,14.8501953 L9.54267578,14.8501953 L9.54267578,6.27128906 C9.54267578,4.37089844 8.64677734,3.28496094 6.86855469,3.28496094 C5.09033203,3.28496094 3.96367187,4.58808594 3.96367187,6.48847656 L3.96367187,14.8501953 L0,14.8501953 L0,0.298632813 L3.96367187,0.298632813 L3.96367187,2.68769531 L4.04511719,2.68769531 C4.79169922,1.01806641 6.28486328,0 8.48388672,0 Z"></path></clipPath><clipPath id="i14"><path d="M7.03144531,0 C10.7915039,0 13.2212891,1.94111328 13.2212891,4.87314453 L13.2212891,14.8501953 L9.25761719,14.8501953 L9.25761719,12.6783203 L9.17617187,12.6783203 C8.34814453,14.1714844 6.80068359,15.080957 4.88671875,15.080957 C1.96826172,15.080957 0,13.2484375 0,10.6829102 L0,10.6557617 C0,8.00878906 2.04970703,6.46132812 5.66044922,6.23056641 L9.25761719,6.01337891 L9.25761719,5.11748047 C9.25761719,3.82792969 8.41601563,3.02705078 6.86855469,3.02705078 C5.38896484,3.02705078 4.49306641,3.71933594 4.30302734,4.65595703 L4.27587891,4.778125 L0.6515625,4.778125 L0.665136719,4.61523437 C0.882324219,1.92753906 3.18994141,0 7.03144531,0 Z M9.25761719,8.48388672 L6.25771484,8.67392578 C4.72382812,8.76894531 3.92294922,9.42050781 3.92294922,10.4521484 L3.92294922,10.4792969 C3.92294922,11.5516602 4.80527344,12.1896484 6.17626953,12.1896484 C7.95449219,12.1896484 9.25761719,11.0494141 9.25761719,9.52910156 L9.25761719,8.48388672 Z"></path></clipPath><clipPath id="i15"><path d="M14.4429688,0 L14.4429688,19.5875977 L10.4792969,19.5875977 L10.4792969,17.1035156 L10.3978516,17.1035156 C9.62412109,18.8274414 8.02236328,19.8862305 5.91835937,19.8862305 C2.25332031,19.8862305 0,17.0356445 0,12.3118164 L0,12.2982422 C0,7.56083984 2.25332031,4.73740234 5.91835937,4.73740234 C7.98164063,4.73740234 9.61054688,5.79619141 10.3978516,7.56083984 L10.4792969,7.56083984 L10.4792969,0 L14.4429688,0 Z M7.24863281,8.02236328 C5.28037109,8.02236328 4.03154297,9.63769531 4.03154297,12.2982422 L4.03154297,12.3118164 C4.03154297,14.9587891 5.26679688,16.6012695 7.24863281,16.6012695 C9.17617187,16.6012695 10.4928711,14.9452148 10.4928711,12.3118164 L10.4928711,12.2982422 C10.4928711,9.67841797 9.16259766,8.02236328 7.24863281,8.02236328 Z"></path></clipPath><clipPath id="i16"><path d="M11.6602539,0 L18.4880859,19.5875977 L14.1850586,19.5875977 L12.7054687,14.8366211 L5.78261719,14.8366211 L4.30302734,19.5875977 L0,19.5875977 L6.84140625,0 L11.6602539,0 Z M9.28476562,3.80078125 L9.20332031,3.80078125 L6.7328125,11.7688477 L11.7552734,11.7688477 L9.28476562,3.80078125 Z"></path></clipPath><clipPath id="i17"><path d="M7.35722656,0 C7.79160156,0 8.19882812,0.0678710938 8.49746094,0.149316406 L8.49746094,3.63789063 C8.17167969,3.50214844 7.62871094,3.42070313 7.05859375,3.42070313 C5.10390625,3.42070313 3.96367187,4.58808594 3.96367187,6.70566406 L3.96367187,14.8501953 L0,14.8501953 L0,0.298632813 L3.96367187,0.298632813 L3.96367187,2.83701172 L4.04511719,2.83701172 C4.47949219,1.04521484 5.66044922,0 7.35722656,0 Z"></path></clipPath><clipPath id="i18"><path d="M7.14003906,0 C11.0901367,0 13.6013672,2.42978516 13.7506836,5.57900391 L13.7506836,5.67402344 L10.0720703,5.67402344 L10.0449219,5.55185547 C9.80058594,4.16728516 8.83681641,3.10849609 7.19433594,3.10849609 C5.25322266,3.10849609 4.03154297,4.778125 4.03154297,7.56083984 L4.03154297,7.57441406 C4.03154297,10.425 5.25322266,12.040332 7.20791016,12.040332 C8.79609375,12.040332 9.78701172,11.0629883 10.0584961,9.59697266 L10.0720703,9.47480469 L13.7642578,9.47480469 L13.7642578,9.55625 C13.5742188,12.7326172 11.0629883,15.1488281 7.18076172,15.1488281 C2.74199219,15.1488281 0,12.2575195 0,7.56083984 L0,7.54726562 C0,2.89130859 2.78271484,0 7.14003906,0 Z"></path></clipPath><clipPath id="i19"><path d="M3.96367187,0 L3.96367187,7.54726563 L4.04511719,7.54726563 C4.79169922,5.74189453 6.32558594,4.73740234 8.51103516,4.73740234 C11.6602539,4.73740234 13.6149414,6.93642578 13.6149414,10.4521484 L13.6149414,19.5875977 L9.65126953,19.5875977 L9.65126953,11.2666016 C9.65126953,9.23046875 8.64677734,8.02236328 6.84140625,8.02236328 C5.09033203,8.02236328 3.96367187,9.35263672 3.96367187,11.2530273 L3.96367187,19.5875977 L0,19.5875977 L0,0 L3.96367187,0 Z"></path></clipPath><clipPath id="i20"><path d="M4.09941406,5.99980469 L4.09941406,20.5513672 L0.135742187,20.5513672 L0.135742187,5.99980469 L4.09941406,5.99980469 Z M2.11757812,0 C3.31210937,0 4.23515625,0.936621094 4.23515625,2.06328125 C4.23515625,3.18994141 3.31210937,4.1265625 2.11757812,4.1265625 C0.923046875,4.1265625 0,3.18994141 0,2.06328125 C0,0.936621094 0.923046875,0 2.11757812,0 Z"></path></clipPath><clipPath id="i21"><path d="M4.23515625,0 L7.27578125,11.0494141 L7.35722656,11.0494141 L10.3571289,0 L14.4972656,0 L9.50195312,14.5515625 L5.03603516,14.5515625 L0,0 L4.23515625,0 Z"></path></clipPath><clipPath id="i22"><path d="M8.48388672,0 C11.6874023,0 13.5063477,2.04970703 13.5063477,5.45683594 L13.5063477,14.8501953 L9.54267578,14.8501953 L9.54267578,6.27128906 C9.54267578,4.37089844 8.64677734,3.28496094 6.86855469,3.28496094 C5.09033203,3.28496094 3.96367187,4.58808594 3.96367187,6.48847656 L3.96367187,14.8501953 L0,14.8501953 L0,0.298632813 L3.96367187,0.298632813 L3.96367187,2.68769531 L4.04511719,2.68769531 C4.79169922,1.01806641 6.28486328,0 8.48388672,0 Z"></path></clipPath><clipPath id="i23"><path d="M5.95908203,0 C8.00878906,0 9.59697266,1.0859375 10.3842773,2.78271484 L10.4657227,2.78271484 L10.4657227,0.298632813 L14.4293945,0.298632813 L14.4293945,14.4429688 C14.4293945,17.687207 11.7009766,19.8998047 7.33007812,19.8998047 C3.32568359,19.8998047 0.800878906,18.0944336 0.420800781,15.759668 L0.407226562,15.6375 L4.26230469,15.6375 L4.30302734,15.7325195 C4.61523437,16.4519531 5.67402344,17.0763672 7.33007812,17.0763672 C9.37978516,17.0763672 10.4657227,16.0175781 10.4657227,14.3886719 L10.4657227,12.1625 L10.3842773,12.1625 C9.62412109,13.6828125 7.99521484,14.646582 5.89121094,14.646582 C2.25332031,14.646582 0,11.9317383 0,7.41152344 L0,7.39794922 C0,2.75556641 2.28046875,0 5.95908203,0 Z M7.26220703,3.28496094 C5.29394531,3.28496094 4.03154297,4.88671875 4.03154297,7.49296875 L4.03154297,7.50654297 C4.03154297,10.1263672 5.28037109,11.7416992 7.26220703,11.7416992 C9.20332031,11.7416992 10.4792969,10.112793 10.4792969,7.50654297 L10.4792969,7.49296875 C10.4792969,4.90029297 9.18974609,3.28496094 7.26220703,3.28496094 Z"></path></clipPath><clipPath id="i24"><path d="M7.88662109,0 C12.4204102,0 15.203125,2.26689453 15.3931641,5.70117188 L15.4067383,5.95908203 L11.5380859,5.95908203 L11.5245117,5.79619141 C11.3208984,4.26230469 9.90917969,3.32568359 7.88662109,3.32568359 C5.78261719,3.33925781 4.52021484,4.30302734 4.52021484,5.70117188 L4.52021484,5.71474609 C4.52021484,6.95 5.52470703,7.66943359 7.77802734,8.11738281 L9.85488281,8.53818359 C13.9542969,9.35263672 15.8003906,11.0222656 15.8003906,14.1036133 L15.8003906,14.1171875 C15.8003906,17.8772461 12.8412109,20.2663086 7.90019531,20.2663086 C3.24423828,20.2663086 0.244335938,18.1351563 0.0135742188,14.5244141 L0,14.3072266 L3.86865234,14.3072266 L3.89580078,14.456543 C4.15371094,15.9768555 5.76904297,16.9270508 8.00878906,16.9270508 C10.2756836,16.9270508 11.7009766,15.9361328 11.7009766,14.4429687 L11.7009766,14.4293945 C11.7009766,13.0991211 10.737207,12.4339844 8.30742187,11.9317383 L6.24414063,11.5245117 C2.37548828,10.7507813 0.420800781,8.9046875 0.420800781,5.95908203 L0.420800781,5.94550781 C0.420800781,2.36191406 3.54287109,0 7.88662109,0 Z"></path></clipPath><clipPath id="i25"><path d="M4.35732422,0 L7.42509766,11.3751953 L7.53369141,11.3751953 L10.6150391,0 L14.7958984,0 L9.80058594,14.8094727 C8.66035156,18.24375 6.70566406,19.3432617 3.475,19.3432617 C2.70126953,19.3432617 1.91396484,19.2482422 1.45244141,19.1667969 L1.45244141,16.2211914 C1.7375,16.2754883 2.19902344,16.3569336 2.78271484,16.3569336 C3.96367187,16.3569336 4.61523438,16.0175781 4.96816406,15.0266602 L5.14462891,14.5515625 L0,0 L4.35732422,0 Z"></path></clipPath><clipPath id="i26"><path d="M6.46132813,0 C10.3299805,0 12.4882812,2.04970703 12.5833008,4.60166016 L12.5833008,4.73740234 L8.93183594,4.73740234 L8.91826172,4.62880859 C8.78251953,3.58359375 7.92734375,2.79628906 6.46132813,2.79628906 C5.09033203,2.79628906 4.23515625,3.40712891 4.23515625,4.34375 L4.23515625,4.35732422 C4.23515625,5.10390625 4.73740234,5.59257813 6.20341797,5.90478516 L8.67392578,6.43417969 C11.7145508,7.07216797 12.9633789,8.26669922 12.9633789,10.4114258 L12.9633789,10.425 C12.9633789,13.2755859 10.3435547,15.1488281 6.59707031,15.1488281 C2.56552734,15.1488281 0.32578125,13.2891602 0.0135742188,10.5335937 L0,10.4114258 L3.86865234,10.4114258 L3.89580078,10.5335937 C4.15371094,11.6738281 5.00888672,12.3389648 6.59707031,12.3389648 C8.09023438,12.3389648 8.99970703,11.7552734 8.99970703,10.8186523 L8.99970703,10.8050781 C8.99970703,10.0313477 8.51103516,9.58339844 7.08574219,9.27119141 L4.61523438,8.75537109 C1.79179687,8.15810547 0.366503906,6.74638672 0.366503906,4.57451172 L0.366503906,4.5609375 C0.366503906,1.79179688 2.75556641,0 6.46132813,0 Z"></path></clipPath><clipPath id="i27"><path d="M6.02695313,0 L6.02695313,3.55644531 L8.6875,3.55644531 L8.6875,6.54277344 L6.02695313,6.54277344 L6.02695313,13.6013672 C6.02695313,14.9587891 6.63779297,15.4203125 7.83232422,15.4203125 C8.18525391,15.4203125 8.44316406,15.3795898 8.6875,15.3524414 L8.6875,18.2573242 C8.23955078,18.3251953 7.6015625,18.4066406 6.77353516,18.4066406 C3.54287109,18.4066406 2.02255859,17.1578125 2.02255859,14.0357422 L2.02255859,6.54277344 L0,6.54277344 L0,3.55644531 L2.02255859,3.55644531 L2.02255859,0 L6.02695313,0 Z"></path></clipPath><clipPath id="i28"><path d="M6.99072266,0 C11.2530273,0 13.9271484,2.89130859 13.9271484,7.28935547 L13.9271484,8.51103516 L3.909375,8.51103516 C3.95009766,10.8322266 5.2125,12.1896484 7.23505859,12.1896484 C8.86396484,12.1896484 9.85488281,11.29375 10.1399414,10.4792969 L10.1670898,10.3978516 L13.8049805,10.3978516 L13.7642578,10.547168 C13.3163086,12.6918945 11.3073242,15.1488281 7.15361328,15.1488281 C2.70126953,15.1488281 0,12.2575195 0,7.6015625 L0,7.58798828 C0,2.95917969 2.72841797,0 6.99072266,0 Z M7.05859375,2.95917969 C5.4296875,2.95917969 4.20800781,4.04511719 3.95009766,6.01337891 L10.1263672,6.01337891 C9.88203125,4.00439453 8.70107422,2.95917969 7.05859375,2.95917969 Z"></path></clipPath><clipPath id="i29"><path d="M16.7234375,0 C19.5740234,0 21.4879883,1.96826172 21.4879883,4.90029297 L21.4879883,14.8501953 L17.5243164,14.8501953 L17.5243164,5.89121094 C17.5243164,4.20800781 16.6827148,3.28496094 15.1488281,3.28496094 C13.6420898,3.28496094 12.6511719,4.38447266 12.6511719,5.99980469 L12.6511719,14.8501953 L8.83681641,14.8501953 L8.83681641,5.76904297 C8.83681641,4.20800781 7.95449219,3.28496094 6.48847656,3.28496094 C4.98173828,3.28496094 3.96367187,4.42519531 3.96367187,6.06767578 L3.96367187,14.8501953 L0,14.8501953 L0,0.298632813 L3.96367187,0.298632813 L3.96367187,2.74199219 L4.04511719,2.74199219 C4.64238281,1.0859375 6.16269531,0 8.11738281,0 C10.1535156,0 11.6331055,1.0859375 12.1217773,2.99990234 L12.2032227,2.99990234 C12.8547852,1.16738281 14.5922852,0 16.7234375,0 Z"></path></clipPath><clipPath id="i30"><path d="M44.0405273,0 L69.8291016,73.9819336 L53.5766602,73.9819336 L47.9882812,56.0375977 L21.8408203,56.0375977 L16.2524414,73.9819336 L0,73.9819336 L25.8398438,0 L44.0405273,0 Z M35.0683594,14.3554688 L34.7607422,14.3554688 L25.4296875,44.4506836 L44.3994141,44.4506836 L35.0683594,14.3554688 Z"></path></clipPath><clipPath id="i31"><path d="M30.5566406,0 C47.1679688,0 57.0117188,8.81835938 57.0117188,23.6865234 L57.0117188,23.7890625 C57.0117188,33.5302734 51.8334961,41.6308594 43.6303711,44.8608398 L59.2163086,73.9819336 L41.6821289,73.9819336 L27.890625,47.1679688 L15.4833984,47.1679688 L15.4833984,73.9819336 L0,73.9819336 L0,0 Z M28.659668,12.0996094 L15.4833984,12.0996094 L15.4833984,35.4272461 L28.8647461,35.4272461 C36.5551758,35.4272461 41.1694336,31.0693359 41.1694336,23.7890625 L41.1694336,23.6865234 C41.1694336,16.6113281 36.2988281,12.0996094 28.659668,12.0996094 Z"></path></clipPath><clipPath id="i32"><path d="M35.222168,0 C53.1665039,0 66.0351562,11.3305664 67.4707031,27.019043 L67.5219727,27.4804688 L52.4487305,27.4804688 L52.2436523,26.6088867 C50.5004883,18.4570312 44.4506836,13.125 35.222168,13.125 C23.3789062,13.125 15.7910156,22.6611328 15.7910156,38.1445312 L15.7910156,38.1958008 C15.7910156,53.7817383 23.3789062,63.4204102 35.222168,63.4204102 C44.1430664,63.4204102 50.3979492,58.293457 52.3974609,49.5263672 L52.5,49.0136719 L67.5732422,49.0136719 L67.5219727,49.5776367 C66.0864258,65.3173828 53.1152344,76.5454102 35.222168,76.5454102 C13.5864258,76.5454102 0,62.0874023 0,38.2470703 L0,38.1958008 C0,14.3554688 13.6376953,0 35.222168,0 Z"></path></clipPath><clipPath id="i33"><path d="M0.00096875,0 L183.386774,16.0373977 C161.449094,18.2529434 147.883781,34.4791592 147.883781,59.4295349 L147.883781,59.5467224 C147.883781,81.5524814 158.357654,96.8110264 175.935184,101.631169 L141.292,101.63 L123.567375,68.5115662 C132.942375,64.8201599 138.860344,55.5623474 138.860344,44.4295349 L138.860344,44.3123474 C138.860344,27.3201599 127.610344,17.2420349 108.625969,17.2420349 L73.7040937,17.2420349 L73.704,101.63 L17.278,101.63 L17.2783125,75.1326599 L33.567375,75.1326599 C51.379875,75.1326599 63.2744062,63.6482849 63.2744062,46.2459412 L63.2744062,46.1287537 C63.2744062,28.7264099 51.379875,17.2420349 33.567375,17.2420349 L0,17.242 L0.00096875,0 Z M202.405918,17.7010966 L262.000969,22.9130096 L235.61248,101.63028 L201.394878,101.631169 C218.972408,96.8110264 229.446281,81.5524814 229.446281,59.5467224 L229.446281,59.4295349 C229.446281,37.9055096 219.344463,22.8270472 202.405918,17.7010966 Z M105.579094,71.1482849 L121.257,101.63 L91.399,101.63 L91.3994062,71.1482849 L105.579094,71.1482849 Z M188.665031,30.7771912 C202.55175,30.7771912 211.399406,41.7928162 211.399406,59.4295349 L211.399406,59.5467224 C211.399406,77.0662537 202.727531,88.2576599 188.665031,88.2576599 C174.778312,88.2576599 165.930656,77.2420349 165.930656,59.5467224 L165.930656,59.4295349 C165.930656,41.7342224 174.836906,30.7771912 188.665031,30.7771912 Z M29.2314375,31.2459412 C39.3681562,31.2459412 45.3447187,36.5779724 45.3447187,46.1873474 L45.3447187,46.3045349 C45.3447187,55.9139099 39.3681562,61.3045349 29.2314375,61.3045349 L17.2783125,61.3045349 L17.2783125,31.2459412 L29.2314375,31.2459412 Z M106.458,31.0701599 C115.188469,31.0701599 120.754875,36.2264099 120.754875,44.3123474 L120.754875,44.4295349 C120.754875,52.7498474 115.481437,57.7303162 106.692375,57.7303162 L91.3994062,57.7303162 L91.3994062,31.0701599 L106.458,31.0701599 Z"></path></clipPath></defs><g transform="translate(-162.0 -241.0)"><g clip-path="url(#i0)"><g transform="translate(162.6515625 241.20718383789068)"><g transform="translate(0.0 121.2414489746093)"><g transform="translate(0.0 0.9637695312500227)"><g clip-path="url(#i1)"><polygon points="0,0 15.4338867,0 15.4338867,19.5875977 0,19.5875977 0,0" stroke="none" fill="#FFFFFF"></polygon></g></g><g transform="translate(17.456445312499994 0.9637695312500227)"><g clip-path="url(#i2)"><polygon points="0,0 13.6149414,0 13.6149414,19.5875977 0,19.5875977 0,0" stroke="none" fill="#FFFFFF"></polygon></g></g><g transform="translate(33.08037109374999 5.701171875000014)"><g clip-path="url(#i3)"><polygon points="0,0 13.9271484,0 13.9271484,15.1488281 0,15.1488281 0,0" stroke="none" fill="#FFFFFF"></polygon></g></g><g transform="translate(54.88056640624998 0.9637695312500227)"><g clip-path="url(#i4)"><polygon points="0,0 14.7551758,0 14.7551758,19.5875977 0,19.5875977 0,0" stroke="none" fill="#FFFFFF"></polygon></g></g><g transform="translate(71.71259765624998 5.701171875000014)"><g clip-path="url(#i5)"><polygon points="0,0 8.49746094,0 8.49746094,14.8501953 0,14.8501953 0,0" stroke="none" fill="#FFFFFF"></polygon></g></g><g transform="translate(81.29599609374998 5.701171875000014)"><g clip-path="url(#i6)"><polygon points="0,0 14.4158203,0 14.4158203,15.1488281 0,15.1488281 0,0" stroke="none" fill="#FFFFFF"></polygon></g></g><g transform="translate(97.21855468749999 0.9637695312500227)"><g clip-path="url(#i7)"><polygon points="0,0 14.4429688,0 14.4429688,19.8862305 0,19.8862305 0,0" stroke="none" fill="#FFFFFF"></polygon></g></g><g transform="translate(114.240625 5.999804687500018)"><g clip-path="url(#i8)"><polygon points="0,0 13.5063477,0 13.5063477,14.8501953 0,14.8501953 0,0" stroke="none" fill="#FFFFFF"></polygon></g></g><g transform="translate(129.7966796875 5.701171875000014)"><g clip-path="url(#i9)"><polygon points="0,0 13.7642578,0 13.7642578,15.1488281 0,15.1488281 0,0" stroke="none" fill="#FFFFFF"></polygon></g></g><g transform="translate(144.4839843749999 2.443359375000014)"><g clip-path="url(#i10)"><polygon points="0,0 8.6875,0 8.6875,18.4066406 0,18.4066406 0,0" stroke="none" fill="#FFFFFF"></polygon></g></g><g transform="translate(155.30263671874997 1.4210854715202004e-14)"><g clip-path="url(#i11)"><polygon points="0,0 4.23515625,0 4.23515625,20.5513672 0,20.5513672 0,0" stroke="none" fill="#FFFFFF"></polygon></g></g><g transform="translate(161.51962890625 5.701171875000014)"><g clip-path="url(#i12)"><polygon points="0,0 14.4158203,0 14.4158203,15.1488281 0,15.1488281 0,0" stroke="none" fill="#FFFFFF"></polygon></g></g><g transform="translate(177.97158203125 5.701171875000014)"><g clip-path="url(#i13)"><polygon points="0,0 13.5063477,0 13.5063477,14.8501953 0,14.8501953 0,0" stroke="none" fill="#FFFFFF"></polygon></g></g><g transform="translate(198.93017578125 5.701171875000014)"><g clip-path="url(#i14)"><polygon points="0,0 13.2212891,0 13.2212891,15.080957 0,15.080957 0,0" stroke="none" fill="#FFFFFF"></polygon></g></g><g transform="translate(214.70341796875 5.701171875000014)"><g clip-path="url(#i13)"><polygon points="0,0 13.5063477,0 13.5063477,14.8501953 0,14.8501953 0,0" stroke="none" fill="#FFFFFF"></polygon></g></g><g transform="translate(230.1916015625 0.9637695312500227)"><g clip-path="url(#i15)"><polygon points="0,0 14.4429688,0 14.4429688,19.8862305 0,19.8862305 0,0" stroke="none" fill="#FFFFFF"></polygon></g></g><g transform="translate(251.86962890625003 0.9637695312500227)"><g clip-path="url(#i16)"><polygon points="0,0 18.4880859,0 18.4880859,19.5875977 0,19.5875977 0,0" stroke="none" fill="#FFFFFF"></polygon></g></g><g transform="translate(272.02734375 5.701171875000014)"><g clip-path="url(#i17)"><polygon points="0,0 8.49746094,0 8.49746094,14.8501953 0,14.8501953 0,0" stroke="none" fill="#FFFFFF"></polygon></g></g><g transform="translate(281.6107421875 5.701171875000014)"><g clip-path="url(#i18)"><polygon points="0,0 13.7642578,0 13.7642578,15.1488281 0,15.1488281 0,0" stroke="none" fill="#FFFFFF"></polygon></g></g><g transform="translate(297.383984375 0.9637695312500227)"><g clip-path="url(#i19)"><polygon points="0,0 13.6149414,0 13.6149414,19.5875977 0,19.5875977 0,0" stroke="none" fill="#FFFFFF"></polygon></g></g><g transform="translate(313.4830078125 1.4210854715202004e-14)"><g clip-path="url(#i20)"><polygon points="0,0 4.23515625,0 4.23515625,20.5513672 0,20.5513672 0,0" stroke="none" fill="#FFFFFF"></polygon></g></g><g transform="translate(319.03486328125 5.999804687500017)"><g clip-path="url(#i21)"><polygon points="0,0 14.4972656,0 14.4972656,14.5515625 0,14.5515625 0,0" stroke="none" fill="#FFFFFF"></polygon></g></g><g transform="translate(334.86240234375 1.4210854715202004e-14)"><g clip-path="url(#i20)"><polygon points="0,0 4.23515625,0 4.23515625,20.5513672 0,20.5513672 0,0" stroke="none" fill="#FFFFFF"></polygon></g></g><g transform="translate(341.6087890625 5.701171875000014)"><g clip-path="url(#i22)"><polygon points="0,0 13.5063477,0 13.5063477,14.8501953 0,14.8501953 0,0" stroke="none" fill="#FFFFFF"></polygon></g></g><g transform="translate(357.09697265625 5.701171875000014)"><g clip-path="url(#i23)"><polygon points="0,0 14.4293945,0 14.4293945,19.8998047 0,19.8998047 0,0" stroke="none" fill="#FFFFFF"></polygon></g></g><g transform="translate(379.209375 0.6244140625000227)"><g clip-path="url(#i24)"><polygon points="0,0 15.8003906,0 15.8003906,20.2663086 0,20.2663086 0,0" stroke="none" fill="#FFFFFF"></polygon></g></g><g transform="translate(395.97353515625 5.999804687500017)"><g clip-path="url(#i25)"><polygon points="0,0 14.7958984,0 14.7958984,19.3432617 0,19.3432617 0,0" stroke="none" fill="#FFFFFF"></polygon></g></g><g transform="translate(411.5431640625 5.701171875000014)"><g clip-path="url(#i26)"><polygon points="0,0 12.9633789,0 12.9633789,15.1488281 0,15.1488281 0,0" stroke="none" fill="#FFFFFF"></polygon></g></g><g transform="translate(425.4703125 2.443359375000014)"><g clip-path="url(#i27)"><polygon points="0,0 8.6875,0 8.6875,18.4066406 0,18.4066406 0,0" stroke="none" fill="#FFFFFF"></polygon></g></g><g transform="translate(435.8138671875 5.701171875000014)"><g clip-path="url(#i28)"><polygon points="0,0 13.9271484,0 13.9271484,15.1488281 0,15.1488281 0,0" stroke="none" fill="#FFFFFF"></polygon></g></g><g transform="translate(451.77714843750005 5.701171875000014)"><g clip-path="url(#i29)"><polygon points="0,0 21.4879883,0 21.4879883,14.8501953 0,14.8501953 0,0" stroke="none" fill="#FFFFFF"></polygon></g></g></g><g transform="translate(261.783984375 26.529144287109375)"><g transform="translate(0.0 1.28173828125)"><g clip-path="url(#i30)"><polygon points="0,0 69.8291016,0 69.8291016,73.9819336 0,73.9819336 0,0" stroke="none" fill="#FFD501"></polygon></g></g><g transform="translate(77.4169921875 1.28173828125)"><g clip-path="url(#i31)"><polygon points="0,0 59.2163086,0 59.2163086,73.9819336 0,73.9819336 0,0" stroke="none" fill="#FFD501"></polygon></g></g><g transform="translate(142.32421875 0.0)"><g clip-path="url(#i32)"><polygon points="0,0 67.5732422,0 67.5732422,76.5454102 0,76.5454102 0,0" stroke="none" fill="#FFD501"></polygon></g></g></g><g transform="translate(6.79668749999999 0.0)"><g clip-path="url(#i33)"><polygon points="0,0 262.000969,0 262.000969,101.631169 0,101.631169 0,0" stroke="none" fill="#FFFFFF"></polygon></g></g></g></g></g></svg>