<?xml version="1.0" encoding="UTF-8"?><svg version="1.1" width="466px" height="104px" viewBox="0 0 466.0 104.0" xmlns="http://www.w3.org/2000/svg" xmlns:xlink="http://www.w3.org/1999/xlink"><defs><clipPath id="i0"><path d="M800,0 L800,600 L0,600 L0,0 L800,0 Z"></path></clipPath><clipPath id="i1"><path d="M44.0405273,0 L69.8291016,73.9819336 L53.5766602,73.9819336 L47.9882812,56.0375977 L21.8408203,56.0375977 L16.2524414,73.9819336 L0,73.9819336 L25.8398438,0 L44.0405273,0 Z M35.0683594,14.3554688 L34.7607422,14.3554688 L25.4296875,44.4506836 L44.3994141,44.4506836 L35.0683594,14.3554688 Z"></path></clipPath><clipPath id="i2"><path d="M30.5566406,0 C47.1679688,0 57.0117188,8.81835938 57.0117188,23.6865234 L57.0117188,23.7890625 C57.0117188,33.5302734 51.8334961,41.6308594 43.6303711,44.8608398 L59.2163086,73.9819336 L41.6821289,73.9819336 L27.890625,47.1679688 L15.4833984,47.1679688 L15.4833984,73.9819336 L0,73.9819336 L0,0 Z M28.659668,12.0996094 L15.4833984,12.0996094 L15.4833984,35.4272461 L28.8647461,35.4272461 C36.5551758,35.4272461 41.1694336,31.0693359 41.1694336,23.7890625 L41.1694336,23.6865234 C41.1694336,16.6113281 36.2988281,12.0996094 28.659668,12.0996094 Z"></path></clipPath><clipPath id="i3"><path d="M35.222168,0 C53.1665039,0 66.0351562,11.3305664 67.4707031,27.019043 L67.5219727,27.4804688 L52.4487305,27.4804688 L52.2436523,26.6088867 C50.5004883,18.4570312 44.4506836,13.125 35.222168,13.125 C23.3789062,13.125 15.7910156,22.6611328 15.7910156,38.1445312 L15.7910156,38.1958008 C15.7910156,53.7817383 23.3789062,63.4204102 35.222168,63.4204102 C44.1430664,63.4204102 50.3979492,58.293457 52.3974609,49.5263672 L52.5,49.0136719 L67.5732422,49.0136719 L67.5219727,49.5776367 C66.0864258,65.3173828 53.1152344,76.5454102 35.222168,76.5454102 C13.5864258,76.5454102 0,62.0874023 0,38.2470703 L0,38.1958008 C0,14.3554688 13.6376953,0 35.222168,0 Z"></path></clipPath><clipPath id="i4"><path d="M0.00096875,0 L183.386774,16.0373977 C161.449094,18.2529434 147.883781,34.4791592 147.883781,59.4295349 L147.883781,59.5467224 C147.883781,81.5524814 158.357654,96.8110264 175.935184,101.631169 L141.292,101.63 L123.567375,68.5115662 C132.942375,64.8201599 138.860344,55.5623474 138.860344,44.4295349 L138.860344,44.3123474 C138.860344,27.3201599 127.610344,17.2420349 108.625969,17.2420349 L73.7040937,17.2420349 L73.704,101.63 L17.278,101.63 L17.2783125,75.1326599 L33.567375,75.1326599 C51.379875,75.1326599 63.2744062,63.6482849 63.2744062,46.2459412 L63.2744062,46.1287537 C63.2744062,28.7264099 51.379875,17.2420349 33.567375,17.2420349 L0,17.242 L0.00096875,0 Z M202.405918,17.7010966 L262.000969,22.9130096 L235.61248,101.63028 L201.394878,101.631169 C218.972408,96.8110264 229.446281,81.5524814 229.446281,59.5467224 L229.446281,59.4295349 C229.446281,37.9055096 219.344463,22.8270472 202.405918,17.7010966 Z M105.579094,71.1482849 L121.257,101.63 L91.399,101.63 L91.3994062,71.1482849 L105.579094,71.1482849 Z M188.665031,30.7771912 C202.55175,30.7771912 211.399406,41.7928162 211.399406,59.4295349 L211.399406,59.5467224 C211.399406,77.0662537 202.727531,88.2576599 188.665031,88.2576599 C174.778312,88.2576599 165.930656,77.2420349 165.930656,59.5467224 L165.930656,59.4295349 C165.930656,41.7342224 174.836906,30.7771912 188.665031,30.7771912 Z M29.2314375,31.2459412 C39.3681562,31.2459412 45.3447187,36.5779724 45.3447187,46.1873474 L45.3447187,46.3045349 C45.3447187,55.9139099 39.3681562,61.3045349 29.2314375,61.3045349 L17.2783125,61.3045349 L17.2783125,31.2459412 L29.2314375,31.2459412 Z M106.458,31.0701599 C115.188469,31.0701599 120.754875,36.2264099 120.754875,44.3123474 L120.754875,44.4295349 C120.754875,52.7498474 115.481437,57.7303162 106.692375,57.7303162 L91.3994062,57.7303162 L91.3994062,31.0701599 L106.458,31.0701599 Z"></path></clipPath></defs><g transform="translate(-169.0 -241.0)"><g clip-path="url(#i0)"><g transform="translate(169.44825 241.20718383789074)"><g transform="translate(254.98729687499997 26.529144287109375)"><g transform="translate(0.0 1.28173828125)"><g clip-path="url(#i1)"><polygon points="0,0 69.8291016,0 69.8291016,73.9819336 0,73.9819336 0,0" stroke="none" fill="#FFD501"></polygon></g></g><g transform="translate(77.4169921875 1.28173828125)"><g clip-path="url(#i2)"><polygon points="0,0 59.2163086,0 59.2163086,73.9819336 0,73.9819336 0,0" stroke="none" fill="#FFD501"></polygon></g></g><g transform="translate(142.32421875 0.0)"><g clip-path="url(#i3)"><polygon points="0,0 67.5732422,0 67.5732422,76.5454102 0,76.5454102 0,0" stroke="none" fill="#FFD501"></polygon></g></g></g><g transform=""><g clip-path="url(#i4)"><polygon points="0,0 262.000969,0 262.000969,101.631169 0,101.631169 0,0" stroke="none" fill="#FFFFFF"></polygon></g></g></g></g></g></svg>