<?xml version="1.0" encoding="UTF-8"?><svg version="1.1" width="405px" height="78px" viewBox="0 0 405.0 78.0" xmlns="http://www.w3.org/2000/svg" xmlns:xlink="http://www.w3.org/1999/xlink"><defs><clipPath id="i0"><path d="M800,0 L800,600 L0,600 L0,0 L800,0 Z"></path></clipPath><clipPath id="i1"><path d="M29.7363281,0 C45.3222656,0 55.7299805,10.0488281 55.7299805,25.2758789 L55.7299805,25.378418 C55.7299805,40.6054688 45.3222656,50.6542969 29.7363281,50.6542969 L15.4833984,50.6542969 L15.4833984,73.9819336 L0,73.9819336 L0,0 Z M25.9423828,12.253418 L15.4833984,12.253418 L15.4833984,38.5546875 L25.9423828,38.5546875 C34.8120117,38.5546875 40.0415039,33.8378906 40.0415039,25.4296875 L40.0415039,25.3271484 C40.0415039,16.9189453 34.8120117,12.253418 25.9423828,12.253418 Z"></path></clipPath><clipPath id="i2"><path d="M30.5566406,0 C47.1679688,0 57.0117188,8.81835938 57.0117188,23.6865234 L57.0117188,23.7890625 C57.0117188,33.5302734 51.8334961,41.6308594 43.6303711,44.8608398 L59.2163086,73.9819336 L41.6821289,73.9819336 L27.890625,47.1679688 L15.4833984,47.1679688 L15.4833984,73.9819336 L0,73.9819336 L0,0 Z M28.659668,12.0996094 L15.4833984,12.0996094 L15.4833984,35.4272461 L28.8647461,35.4272461 C36.5551758,35.4272461 41.1694336,31.0693359 41.1694336,23.7890625 L41.1694336,23.6865234 C41.1694336,16.6113281 36.2988281,12.0996094 28.659668,12.0996094 Z"></path></clipPath><clipPath id="i3"><path d="M35.6835938,0 C55.342741,0 68.4176968,11.8103934 70.9267681,31.1545468 L57.2912163,70.1931421 C51.5617493,74.311749 44.2530777,76.5454102 35.6835938,76.5454102 C13.6889648,76.5454102 0,61.8310547 0,38.2983398 L0,38.1958008 C0,14.6630859 13.7915039,0 35.6835938,0 Z M35.6835938,13.125 C23.5839844,13.125 15.7910156,22.7124023 15.7910156,38.1958008 L15.7910156,38.2983398 C15.7910156,53.7817383 23.5327148,63.4204102 35.6835938,63.4204102 C47.9882812,63.4204102 55.5761719,53.6279297 55.5761719,38.2983398 L55.5761719,38.1958008 C55.5761719,22.7636719 47.8344727,13.125 35.6835938,13.125 Z"></path></clipPath><clipPath id="i4"><path d="M35.222168,0 C53.1665039,0 66.0351562,11.3305664 67.4707031,27.019043 L67.5219727,27.4804688 L52.4487305,27.4804688 L52.2436523,26.6088867 C50.5004883,18.4570312 44.4506836,13.125 35.222168,13.125 C23.3789062,13.125 15.7910156,22.6611328 15.7910156,38.1445312 L15.7910156,38.1958008 C15.7910156,53.7817383 23.3789062,63.4204102 35.222168,63.4204102 C44.1430664,63.4204102 50.3979492,58.293457 52.3974609,49.5263672 L52.5,49.0136719 L67.5732422,49.0136719 L67.5219727,49.5776367 C66.0864258,65.3173828 53.1152344,76.5454102 35.222168,76.5454102 C13.5864258,76.5454102 0,62.0874023 0,38.2470703 L0,38.1958008 C0,14.3554688 13.6376953,0 35.222168,0 Z"></path></clipPath><clipPath id="i5"><path d="M6.83428383,0 L32.585434,62.6535416 L16.5800362,62.6535416 L0,21.9262199 L6.83428383,0 Z"></path></clipPath><clipPath id="i6"><path d="M39.3531952,0 L16.2524414,73.9819336 L0,73.9819336 L25.8398437,0 L39.3531952,0 Z"></path></clipPath></defs><g transform="translate(-239.0 -267.0)"><g clip-path="url(#i0)"><g transform="translate(239.15234375 267.736328125)"><g transform="translate(0.0 1.28173828125)"><g clip-path="url(#i1)"><polygon points="0,0 55.7299805,0 55.7299805,73.9819336 0,73.9819336 0,0" stroke="none" fill="#FFFFFF"></polygon></g></g><g transform="translate(64.85595703125 1.28173828125)"><g clip-path="url(#i2)"><polygon points="0,0 59.2163086,0 59.2163086,73.9819336 0,73.9819336 0,0" stroke="none" fill="#FFFFFF"></polygon></g></g><g transform="translate(129.76318359375 0.0)"><g clip-path="url(#i3)"><polygon points="0,0 70.9267681,0 70.9267681,76.5454102 0,76.5454102 0,0" stroke="none" fill="#FFFFFF"></polygon></g></g><g transform="translate(194.283203125 0.0)"><g transform="translate(77.4169921875 1.28173828125)"><g clip-path="url(#i2)"><polygon points="0,0 59.2163086,0 59.2163086,73.9819336 0,73.9819336 0,0" stroke="none" fill="#FFD501"></polygon></g></g><g transform="translate(142.32421875 0.0)"><g clip-path="url(#i4)"><polygon points="0,0 67.5732422,0 67.5732422,76.5454102 0,76.5454102 0,0" stroke="none" fill="#FFD501"></polygon></g></g></g><g transform="translate(194.283203125 1.28173828125)"><g transform="translate(37.064453125 11.328392028808594)"><g clip-path="url(#i5)"><polygon points="0,0 32.585434,0 32.585434,62.6535416 0,62.6535416 0,0" stroke="none" fill="#FFD603"></polygon></g></g><g clip-path="url(#i6)"><polygon points="0,0 39.3531952,0 39.3531952,73.9819336 0,73.9819336 0,0" stroke="none" fill="#FFD601"></polygon></g></g></g></g></g></svg>