<?xml version="1.0" encoding="UTF-8"?><svg version="1.1" width="334px" height="94px" viewBox="0 0 334.0 94.0" xmlns="http://www.w3.org/2000/svg" xmlns:xlink="http://www.w3.org/1999/xlink"><defs><clipPath id="i0"><path d="M800,0 L800,600 L0,600 L0,0 L800,0 Z"></path></clipPath><clipPath id="i1"><path d="M10.4699707,0 L10.4699707,1.90063477 L6.09741211,1.90063477 L6.09741211,16.105957 L4.35058594,16.105957 L4.35058594,1.90063477 L0,1.90063477 L0,0 L10.4699707,0 Z"></path></clipPath><clipPath id="i2"><path d="M1.61499023,0 L1.61499023,5.77880859 C1.99584961,5.24414062 2.42614746,4.84313965 2.90588379,4.57580566 C3.38562012,4.30847168 3.91479492,4.17480469 4.4934082,4.17480469 C5.51147461,4.17480469 6.31530762,4.49890137 6.90490723,5.14709473 C7.49450684,5.79528809 7.78930664,6.98364258 7.78930664,8.7121582 L7.78930664,16.105957 L6.17431641,16.105957 L6.17431641,8.7121582 C6.17431641,7.70141602 5.99487305,6.97631836 5.63598633,6.53686523 C5.27709961,6.09741211 4.78271484,5.87768555 4.15283203,5.87768555 C3.44970703,5.87768555 2.85095215,6.15966797 2.35656738,6.72363281 C1.86218262,7.28759766 1.61499023,8.28735352 1.61499023,9.72290039 L1.61499023,16.105957 L0,16.105957 L0,0 L1.61499023,0 Z"></path></clipPath><clipPath id="i3"><path d="M4.48242188,0 C5.72021484,0 6.75292969,0.520019531 7.58056641,1.56005859 C8.40820312,2.60009766 8.82202148,4.10522461 8.82202148,6.07543945 L8.81103516,6.6027832 L1.66992188,6.6027832 C1.73583984,7.91381836 2.03979492,8.90258789 2.58178711,9.5690918 C3.1237793,10.2355957 3.78295898,10.5688477 4.55932617,10.5688477 C5.77514648,10.5688477 6.62109375,9.77050781 7.09716797,8.17382812 L8.76708984,8.42651367 C8.48876953,9.67163086 7.98522949,10.6109619 7.25646973,11.2445068 C6.52770996,11.8780518 5.625,12.1948242 4.54833984,12.1948242 C3.19335938,12.1948242 2.09655762,11.6802979 1.25793457,10.6512451 C0.419311523,9.62219238 0,8.13720703 0,6.19628906 C0,4.18212891 0.422973633,2.64587402 1.2689209,1.58752441 C2.11486816,0.529174805 3.18603516,0 4.48242188,0 Z M4.47143555,1.62597656 C3.74633789,1.62597656 3.12744141,1.92810059 2.61474609,2.53234863 C2.10205078,3.13659668 1.82006836,3.95141602 1.76879883,4.97680664 L7.1081543,4.97680664 C7.03491211,3.96606445 6.81884766,3.21166992 6.45996094,2.71362305 C5.93994141,1.98852539 5.27709961,1.62597656 4.47143555,1.62597656 Z"></path></clipPath><clipPath id="i4"><path d="M4.97680664,0 C6.14868164,0 7.01293945,0.102539062 7.56958008,0.307617188 C8.33129883,0.5859375 8.93920898,1.10229492 9.39331055,1.85668945 C9.84741211,2.61108398 10.0744629,3.53759766 10.0744629,4.63623047 C10.0744629,6.08642578 9.70458984,7.26928711 8.96484375,8.18481445 C8.22509766,9.1003418 6.94702148,9.55810547 5.13061523,9.55810547 L1.74682617,9.55810547 L1.74682617,16.105957 L0,16.105957 L0,0 L4.97680664,0 Z M5.13061523,1.90063477 L1.74682617,1.90063477 L1.74682617,7.6574707 L5.16357422,7.6574707 C6.24023438,7.6574707 7.02758789,7.41394043 7.52563477,6.92687988 C8.02368164,6.43981934 8.27270508,5.70556641 8.27270508,4.72412109 C8.27270508,4.08691406 8.15002441,3.54125977 7.90466309,3.0871582 C7.65930176,2.63305664 7.3626709,2.32177734 7.01477051,2.15332031 C6.66687012,1.98486328 6.03881836,1.90063477 5.13061523,1.90063477 Z"></path></clipPath><clipPath id="i5"><path d="M3.53759766,0 C4.07958984,0 4.63256836,0.212402344 5.1965332,0.637207031 L4.6472168,2.47192383 C4.24438477,2.1862793 3.85253906,2.04345703 3.47167969,2.04345703 C3.12744141,2.04345703 2.8125,2.16430664 2.52685547,2.40600586 C2.24121094,2.64770508 2.03979492,2.98461914 1.92260742,3.41674805 C1.7175293,4.17114258 1.61499023,4.97314453 1.61499023,5.82275391 L1.61499023,11.9311523 L0,11.9311523 L0,0.263671875 L1.46118164,0.263671875 L1.46118164,2.0324707 C1.8347168,1.2121582 2.17712402,0.668334961 2.48840332,0.401000977 C2.79968262,0.133666992 3.14941406,0 3.53759766,0 Z"></path></clipPath><clipPath id="i6"><path d="M4.48242188,0 C5.75683594,0 6.82250977,0.512695312 7.67944336,1.53808594 C8.53637695,2.56347656 8.96484375,4.04296875 8.96484375,5.9765625 C8.96484375,8.07128906 8.54370117,9.63134766 7.70141602,10.6567383 C6.85913086,11.6821289 5.78613281,12.1948242 4.48242188,12.1948242 C3.20068359,12.1948242 2.13317871,11.6802979 1.27990723,10.6512451 C0.426635742,9.62219238 0,8.10424805 0,6.09741211 C0,4.08325195 0.422973633,2.56347656 1.2689209,1.53808594 C2.11486816,0.512695312 3.18603516,0 4.48242188,0 Z M4.43847656,1.63696289 C3.66943359,1.63696289 3.01391602,2.00683594 2.47192383,2.74658203 C1.92993164,3.48632812 1.65893555,4.60327148 1.65893555,6.09741211 C1.65893555,7.60620117 1.93359375,8.7286377 2.48291016,9.46472168 C3.03222656,10.2008057 3.71337891,10.5688477 4.52636719,10.5688477 C5.28808594,10.5688477 5.94177246,10.1971436 6.48742676,9.45373535 C7.03308105,8.71032715 7.3059082,7.59155273 7.3059082,6.09741211 C7.3059082,4.59594727 7.03125,3.47717285 6.48193359,2.74108887 C5.93261719,2.00500488 5.25146484,1.63696289 4.43847656,1.63696289 Z"></path></clipPath><clipPath id="i7"><path d="M8.30566406,0 L8.30566406,16.105957 L6.78955078,16.105957 L6.78955078,14.6337891 C6.49658203,15.1977539 6.11938477,15.6280518 5.65795898,15.9246826 C5.1965332,16.2213135 4.69848633,16.3696289 4.16381836,16.3696289 C3.03588867,16.3696289 2.05993652,15.836792 1.23596191,14.7711182 C0.411987305,13.7054443 0,12.2058105 0,10.2722168 C0,8.9465332 0.183105469,7.82226562 0.549316406,6.89941406 C0.915527344,5.9765625 1.40441895,5.29174805 2.01599121,4.8449707 C2.62756348,4.39819336 3.30688477,4.17480469 4.05395508,4.17480469 C4.58862305,4.17480469 5.08483887,4.3157959 5.54260254,4.59777832 C6.00036621,4.87976074 6.37939453,5.2734375 6.6796875,5.77880859 L6.6796875,0 L8.30566406,0 Z M4.15283203,5.80078125 C3.47167969,5.80078125 2.88574219,6.16149902 2.39501953,6.88293457 C1.90429688,7.60437012 1.65893555,8.73779297 1.65893555,10.2832031 C1.65893555,11.7919922 1.92077637,12.9125977 2.44445801,13.6450195 C2.96813965,14.3774414 3.57788086,14.7436523 4.27368164,14.7436523 C4.9621582,14.7436523 5.55908203,14.3920898 6.06445312,13.6889648 C6.56982422,12.9858398 6.82250977,11.9238281 6.82250977,10.5029297 C6.82250977,8.86962891 6.56982422,7.6776123 6.06445312,6.92687988 C5.55908203,6.17614746 4.921875,5.80078125 4.15283203,5.80078125 Z"></path></clipPath><clipPath id="i8"><path d="M1.61499023,0 L1.61499023,6.47094727 C1.61499023,7.67211914 1.67541504,8.47595215 1.79626465,8.88244629 C1.91711426,9.28894043 2.14050293,9.61486816 2.46643066,9.86022949 C2.7923584,10.1055908 3.1640625,10.2282715 3.58154297,10.2282715 C4.35791016,10.2282715 4.99511719,9.90966797 5.49316406,9.27246094 C5.91796875,8.72314453 6.13037109,7.71606445 6.13037109,6.2512207 L6.13037109,0 L7.75634766,0 L7.75634766,11.6674805 L6.30615234,11.6674805 L6.30615234,9.95361328 C5.93261719,10.612793 5.49316406,11.1071777 4.98779297,11.4367676 C4.48242188,11.7663574 3.91113281,11.9311523 3.27392578,11.9311523 C2.51953125,11.9311523 1.875,11.7279053 1.34033203,11.3214111 C0.805664062,10.914917 0.448608398,10.4003906 0.269165039,9.77783203 C0.0897216797,9.15527344 0,8.30566406 0,7.22900391 L0,0 L1.61499023,0 Z"></path></clipPath><clipPath id="i9"><path d="M4.37255859,0 C5.36132812,0 6.19445801,0.307617188 6.87194824,0.922851562 C7.54943848,1.53808594 7.98339844,2.4609375 8.17382812,3.69140625 L6.6027832,3.98803711 C6.44897461,3.19702148 6.18164062,2.60559082 5.80078125,2.21374512 C5.41992188,1.82189941 4.9621582,1.62597656 4.42749023,1.62597656 C3.62915039,1.62597656 2.96813965,1.97937012 2.44445801,2.68615723 C1.92077637,3.39294434 1.65893555,4.51538086 1.65893555,6.0534668 C1.65893555,7.64282227 1.90979004,8.79272461 2.41149902,9.50317383 C2.91320801,10.213623 3.5559082,10.5688477 4.33959961,10.5688477 C4.95483398,10.5688477 5.48034668,10.3326416 5.9161377,9.86022949 C6.35192871,9.38781738 6.62841797,8.65356445 6.74560547,7.6574707 L8.33862305,7.91015625 C8.15551758,9.30175781 7.69592285,10.3637695 6.95983887,11.0961914 C6.22375488,11.8286133 5.33935547,12.1948242 4.30664062,12.1948242 C3.05419922,12.1948242 2.02331543,11.6802979 1.21398926,10.6512451 C0.404663086,9.62219238 0,8.10058594 0,6.08642578 C0,4.05761719 0.408325195,2.53601074 1.22497559,1.52160645 C2.04162598,0.507202148 3.09082031,0 4.37255859,0 Z"></path></clipPath><clipPath id="i10"><path d="M2.80151367,0 L2.80151367,4.07592773 L4.43847656,4.07592773 L4.43847656,5.61401367 L2.80151367,5.61401367 L2.80151367,12.4365234 C2.80151367,13.0664062 2.84912109,13.4729004 2.94433594,13.6560059 C3.08349609,13.9196777 3.34350586,14.0515137 3.72436523,14.0515137 C3.9074707,14.0515137 4.14550781,14.0258789 4.43847656,13.9746094 L4.65820312,15.7214355 C4.21142578,15.838623 3.80859375,15.8972168 3.44970703,15.8972168 C2.88574219,15.8972168 2.43164062,15.7855225 2.08740234,15.5621338 C1.74316406,15.3387451 1.50695801,15.032959 1.37878418,14.6447754 C1.25061035,14.2565918 1.18652344,13.4838867 1.18652344,12.3266602 L1.18652344,5.61401367 L0,5.61401367 L0,4.07592773 L1.18652344,4.07592773 L1.18652344,1.18652344 L2.80151367,0 Z"></path></clipPath><clipPath id="i11"><path d="M1.61499023,4.43847656 L1.61499023,16.105957 L0,16.105957 L0,4.43847656 L1.61499023,4.43847656 Z M1.61499023,0 L1.61499023,2.27416992 L0,2.27416992 L0,0 L1.61499023,0 Z"></path></clipPath><clipPath id="i12"><path d="M4.50439453,0 C5.01708984,0 5.49133301,0.100708008 5.92712402,0.302124023 C6.36291504,0.503540039 6.71447754,0.767211914 6.98181152,1.09313965 C7.24914551,1.41906738 7.44873047,1.84204102 7.58056641,2.36206055 C7.71240234,2.88208008 7.77832031,3.68041992 7.77832031,4.75708008 L7.77832031,11.9311523 L6.15234375,11.9311523 L6.15234375,4.83398438 C6.15234375,3.97705078 6.07910156,3.35083008 5.93261719,2.95532227 C5.78613281,2.55981445 5.55725098,2.25402832 5.24597168,2.03796387 C4.93469238,1.82189941 4.57397461,1.71386719 4.16381836,1.71386719 C3.38745117,1.71386719 2.76855469,2.00317383 2.30712891,2.58178711 C1.84570312,3.16040039 1.61499023,4.15283203 1.61499023,5.55908203 L1.61499023,11.9311523 L0,11.9311523 L0,0.263671875 L1.46118164,0.263671875 L1.46118164,1.92260742 C1.81274414,1.27807617 2.24304199,0.796508789 2.7520752,0.477905273 C3.2611084,0.159301758 3.84521484,0 4.50439453,0 Z"></path></clipPath><clipPath id="i13"><path d="M4.62524414,0 C5.62866211,0 6.41601563,0.188598633 6.98730469,0.565795898 C7.55859375,0.942993164 7.91931152,1.40991211 8.06945801,1.96655273 C8.21960449,2.52319336 8.29467773,3.33618164 8.29467773,4.40551758 L8.29467773,7.04223633 C8.29467773,8.88793945 8.32946777,10.0506592 8.39904785,10.5303955 C8.46862793,11.0101318 8.60595703,11.4770508 8.81103516,11.9311523 L7.11914062,11.9311523 C6.95068359,11.5283203 6.84082031,11.048584 6.78955078,10.4919434 C6.24755859,11.0559082 5.68359375,11.4807129 5.09765625,11.7663574 C4.51171875,12.052002 3.90380859,12.1948242 3.27392578,12.1948242 C2.27783203,12.1948242 1.4831543,11.8945312 0.889892578,11.2939453 C0.296630859,10.6933594 0,9.8840332 0,8.8659668 C0,8.19213867 0.139160156,7.59521484 0.417480469,7.07519531 C0.695800781,6.55517578 1.07666016,6.14868164 1.56005859,5.85571289 C2.04345703,5.56274414 2.77587891,5.34667969 3.75732422,5.20751953 C5.07568359,5.01708984 6.04248047,4.79003906 6.65771484,4.52636719 L6.66870117,4.02099609 C6.66870117,3.22265625 6.52587891,2.66235352 6.24023438,2.34008789 C5.83740234,1.87133789 5.21850586,1.63696289 4.38354492,1.63696289 C3.62915039,1.63696289 3.06518555,1.79260254 2.69165039,2.10388184 C2.31811523,2.41516113 2.04345703,2.99926758 1.86767578,3.85620117 L0.274658203,3.5925293 C0.501708984,2.34008789 0.961303711,1.42822266 1.65344238,0.856933594 C2.34558105,0.285644531 3.33618164,0 4.62524414,0 Z M6.65771484,6.07543945 C6.06445312,6.3684082 5.18188477,6.61743164 4.01000977,6.82250977 C3.32885742,6.93969727 2.8527832,7.07336426 2.58178711,7.22351074 C2.31079102,7.37365723 2.10021973,7.58605957 1.95007324,7.86071777 C1.79992676,8.13537598 1.72485352,8.45214844 1.72485352,8.81103516 C1.72485352,9.36767578 1.89697266,9.81262207 2.24121094,10.145874 C2.58544922,10.479126 3.06152344,10.645752 3.66943359,10.645752 C4.24804688,10.645752 4.77355957,10.4956055 5.24597168,10.1953125 C5.71838379,9.89501953 6.07177734,9.49401855 6.30615234,8.99230957 C6.54052734,8.49060059 6.65771484,7.76000977 6.65771484,6.80053711 L6.65771484,6.07543945 Z"></path></clipPath><clipPath id="i14"><path d="M6.9543457,0 L12.3596191,16.105957 L10.3601074,16.105957 L8.82202148,11.2280273 L3.30688477,11.2280273 L1.85668945,16.105957 L0,16.105957 L5.07568359,0 L6.9543457,0 Z M5.9765625,1.69189453 C5.80810547,2.72460938 5.57006836,3.75 5.26245117,4.76806641 L3.81225586,9.4921875 L8.28369141,9.4921875 L6.91040039,5.03173828 C6.4855957,3.66210938 6.17431641,2.54882812 5.9765625,1.69189453 Z"></path></clipPath><clipPath id="i15"><path d="M1.71386719,0 L3.76831055,6.98730469 C4.00268555,7.77832031 4.20776367,8.56201172 4.38354492,9.33837891 C4.52270508,8.72314453 4.72045898,7.98339844 4.97680664,7.11914063 L7.1081543,0 L8.77807617,0 L5.15258789,11.6674805 L3.63647461,11.6674805 L0,0 L1.71386719,0 Z"></path></clipPath><clipPath id="i16"><path d="M4.15283203,0 C4.71679688,0 5.23132324,0.139160156 5.69641113,0.417480469 C6.16149902,0.695800781 6.57348633,1.11328125 6.93237305,1.66992188 L6.93237305,0.263671875 L8.42651367,0.263671875 L8.42651367,10.3491211 C8.42651367,12.1435547 8.2800293,13.4234619 7.98706055,14.1888428 C7.6940918,14.9542236 7.21435547,15.5584717 6.54785156,16.0015869 C5.88134766,16.4447021 5.0793457,16.6662598 4.1418457,16.6662598 C2.90405273,16.6662598 1.9519043,16.3330078 1.28540039,15.6665039 C0.618896484,15 0.296630859,14.0771484 0.318603516,12.8979492 L1.90063477,13.1835937 C1.97387695,13.8061523 2.19360352,14.2694092 2.55981445,14.5733643 C2.92602539,14.8773193 3.43505859,15.0292969 4.08691406,15.0292969 C4.79736328,15.0292969 5.36315918,14.8590088 5.78430176,14.5184326 C6.20544434,14.1778564 6.49291992,13.6706543 6.64672852,12.9968262 C6.74194336,12.5866699 6.78955078,11.7224121 6.78955078,10.4040527 C6.43798828,10.9094238 6.04248047,11.2902832 5.60302734,11.5466309 C5.16357422,11.8029785 4.67651367,11.9311523 4.1418457,11.9311523 C2.99926758,11.9311523 2.05078125,11.4477539 1.29638672,10.480957 C0.432128906,9.36767578 0,7.87719727 0,6.00952148 C0,4.75708008 0.190429688,3.66210938 0.571289062,2.72460938 C0.952148438,1.78710938 1.45202637,1.09863281 2.07092285,0.659179688 C2.68981934,0.219726562 3.38378906,0 4.15283203,0 Z M4.20776367,1.63696289 C3.53393555,1.63696289 2.94250488,1.99401855 2.43347168,2.70812988 C1.92443848,3.42224121 1.66992188,4.48242188 1.66992188,5.88867188 C1.66992188,7.41943359 1.92260742,8.53637695 2.42797852,9.23950195 C2.93334961,9.94262695 3.55224609,10.2941895 4.28466797,10.2941895 C5.01708984,10.2941895 5.63964844,9.94995117 6.15234375,9.26147461 C6.66503906,8.57299805 6.92138672,7.47802734 6.92138672,5.9765625 C6.92138672,4.51171875 6.65771484,3.42224121 6.13037109,2.70812988 C5.60302734,1.99401855 4.9621582,1.63696289 4.20776367,1.63696289 Z"></path></clipPath><clipPath id="i17"><path d="M5.17456055,0 C6.15600586,0 7.01477051,0.194091797 7.75085449,0.582275391 C8.48693848,0.970458984 9.05822754,1.52709961 9.46472168,2.25219727 C9.87121582,2.97729492 10.0891113,3.83056641 10.1184082,4.81201172 L8.4375,4.96582031 C8.34960938,3.91845703 8.03649902,3.14208984 7.49816895,2.63671875 C6.95983887,2.13134766 6.20361328,1.87866211 5.22949219,1.87866211 C4.24072266,1.87866211 3.48632812,2.10021973 2.96630859,2.54333496 C2.44628906,2.9864502 2.1862793,3.55957031 2.1862793,4.26269531 C2.1862793,4.91455078 2.37670898,5.41992188 2.75756836,5.77880859 C3.13842773,6.13769531 3.99536133,6.50024414 5.32836914,6.86645508 C6.63208008,7.2253418 7.54760742,7.53662109 8.07495117,7.80029297 C8.88061523,8.21044922 9.48852539,8.75061035 9.89868164,9.42077637 C10.3088379,10.0909424 10.513916,10.8911133 10.513916,11.8212891 C10.513916,12.7441406 10.2978516,13.5845947 9.86572266,14.3426514 C9.43359375,15.100708 8.8458252,15.6774902 8.10241699,16.072998 C7.35900879,16.4685059 6.46362305,16.6662598 5.41625977,16.6662598 C3.78295898,16.6662598 2.4810791,16.1755371 1.51062012,15.1940918 C0.540161133,14.2126465 0.0366210938,12.8833008 0,11.2060547 L1.64794922,11.0302734 C1.73583984,11.9165039 1.9354248,12.6068115 2.2467041,13.1011963 C2.5579834,13.5955811 3.00292969,13.9929199 3.58154297,14.2932129 C4.16015625,14.5935059 4.81201172,14.7436523 5.53710938,14.7436523 C6.57714844,14.7436523 7.38464355,14.4891357 7.95959473,13.9801025 C8.5345459,13.4710693 8.82202148,12.8100586 8.82202148,11.9970703 C8.82202148,11.5209961 8.71765137,11.1053467 8.50891113,10.7501221 C8.3001709,10.3948975 7.98522949,10.1037598 7.56408691,9.87670898 C7.14294434,9.6496582 6.23291016,9.33105469 4.83398438,8.92089844 C3.58886719,8.5546875 2.70263672,8.18481445 2.17529297,7.8112793 C1.64794922,7.43774414 1.23779297,6.96350098 0.944824219,6.3885498 C0.651855469,5.81359863 0.505371094,5.16357422 0.505371094,4.43847656 C0.505371094,3.13476562 0.926513672,2.0690918 1.76879883,1.24145508 C2.61108398,0.413818359 3.74633789,0 5.17456055,0 Z"></path></clipPath><clipPath id="i18"><path d="M1.74682617,0 L3.74633789,6.7565918 C3.99536133,7.59887695 4.22607422,8.49975586 4.43847656,9.45922852 C4.62158203,8.55102539 4.84130859,7.66479492 5.09765625,6.80053711 L7.14111328,0 L8.76708984,0 L5.13061523,11.8652344 C4.65454102,13.4033203 4.2791748,14.430542 4.0045166,14.9468994 C3.7298584,15.4632568 3.4185791,15.8349609 3.07067871,16.0620117 C2.72277832,16.2890625 2.32910156,16.4025879 1.88964844,16.4025879 C1.58203125,16.4025879 1.23413086,16.3220215 0.845947266,16.1608887 L0.670166016,14.3041992 C1.02905273,14.4213867 1.33666992,14.4799805 1.59301758,14.4799805 C1.93725586,14.4799805 2.22106934,14.4104004 2.44445801,14.2712402 C2.66784668,14.1320801 2.8527832,13.9160156 2.99926758,13.6230469 C3.05053711,13.5205078 3.26293945,12.8759766 3.63647461,11.6894531 L0,0 L1.74682617,0 Z"></path></clipPath><clipPath id="i19"><path d="M3.87817383,0 C4.58862305,0 5.2130127,0.128173828 5.75134277,0.384521484 C6.28967285,0.640869141 6.70166016,0.985107422 6.98730469,1.41723633 C7.27294922,1.84936523 7.47070312,2.46826172 7.58056641,3.27392578 L5.99853516,3.53759766 C5.85205078,2.26318359 5.15991211,1.62597656 3.92211914,1.62597656 C3.21899414,1.62597656 2.6953125,1.76696777 2.35107422,2.0489502 C2.00683594,2.33093262 1.8347168,2.69165039 1.8347168,3.13110352 C1.8347168,3.56323242 1.99951172,3.90380859 2.32910156,4.15283203 C2.52685547,4.29931641 3.11279297,4.53369141 4.08691406,4.85595703 C5.42724609,5.28808594 6.29516602,5.63049316 6.69067383,5.88317871 C7.08618164,6.13586426 7.39379883,6.48010254 7.61352539,6.91589355 C7.83325195,7.35168457 7.94311523,7.86987305 7.94311523,8.47045898 C7.94311523,9.58374023 7.58972168,10.4846191 6.88293457,11.1730957 C6.17614746,11.8615723 5.21118164,12.2058105 3.98803711,12.2058105 C1.69555664,12.2058105 0.366210938,10.9533691 0,8.44848633 L1.60400391,8.14086914 C1.69921875,8.96118164 1.95922852,9.57092285 2.3840332,9.97009277 C2.80883789,10.3692627 3.37280273,10.5688477 4.07592773,10.5688477 C4.77905273,10.5688477 5.32287598,10.3948975 5.70739746,10.0469971 C6.09191895,9.69909668 6.28417969,9.2578125 6.28417969,8.72314453 C6.28417969,8.26171875 6.11938477,7.90283203 5.78979492,7.64648438 C5.56274414,7.47070313 5.01342773,7.25097656 4.1418457,6.98730469 C2.88208008,6.59912109 2.03979492,6.26953125 1.61499023,5.99853516 C1.19018555,5.72753906 0.860595703,5.36499023 0.626220703,4.91088867 C0.391845703,4.45678711 0.274658203,3.94042969 0.274658203,3.36181641 C0.274658203,2.36572266 0.593261719,1.55639648 1.23046875,0.933837891 C1.86767578,0.311279297 2.75024414,0 3.87817383,0 Z"></path></clipPath><clipPath id="i20"><path d="M10.0085449,0 C10.9240723,0 11.6455078,0.311279297 12.1728516,0.933837891 C12.7001953,1.55639648 12.9638672,2.55249023 12.9638672,3.92211914 L12.9638672,11.9311523 L11.348877,11.9311523 L11.348877,4.58129883 C11.348877,3.74633789 11.2884521,3.15490723 11.1676025,2.80700684 C11.0467529,2.45910645 10.8508301,2.18994141 10.579834,1.99951172 C10.3088379,1.80908203 10.0048828,1.71386719 9.66796875,1.71386719 C8.97216797,1.71386719 8.40454102,1.99035645 7.96508789,2.54333496 C7.52563477,3.09631348 7.3059082,3.96606445 7.3059082,5.15258789 L7.3059082,11.9311523 L5.67993164,11.9311523 L5.67993164,4.35058594 C5.67993164,3.38378906 5.53161621,2.70263672 5.23498535,2.30712891 C4.93835449,1.91162109 4.5300293,1.71386719 4.01000977,1.71386719 C3.27026367,1.71386719 2.68615723,2.0123291 2.25769043,2.60925293 C1.82922363,3.20617676 1.61499023,4.2956543 1.61499023,5.87768555 L1.61499023,11.9311523 L0,11.9311523 L0,0.263671875 L1.45019531,0.263671875 L1.45019531,1.90063477 C1.77246094,1.29272461 2.1862793,0.823974609 2.69165039,0.494384766 C3.19702148,0.164794922 3.75,0 4.35058594,0 C5.02441406,0 5.59387207,0.173950195 6.05895996,0.521850586 C6.52404785,0.869750977 6.85546875,1.37695312 7.05322266,2.04345703 C7.43408203,1.36230469 7.8717041,0.85144043 8.36608887,0.510864258 C8.86047363,0.170288086 9.40795898,0 10.0085449,0 Z"></path></clipPath><clipPath id="i21"><path d="M29.88,0 C33.96,0 37.84,0.8 41.52,2.4 C45.2,4 48.4,6.16 51.12,8.88 C53.84,11.6 56,14.78 57.6,18.42 C59.2,22.06 60,25.92 60,30 C60,34.16 59.2,38.06 57.6,41.7 C56,45.34 53.84,48.52 51.12,51.24 C48.4,53.96 45.2,56.1 41.52,57.66 C37.84,59.22 33.96,60 29.88,60 C27.24,60 24.8,59.72 22.56,59.16 L25.56,47.04 C26.84,47.52 28.28,47.76 29.88,47.76 C32.28,47.76 34.56,47.3 36.72,46.38 C38.88,45.46 40.76,44.2 42.36,42.6 C43.96,41 45.22,39.12 46.14,36.96 C47.06,34.8 47.52,32.48 47.52,30 C47.52,27.6 47.06,25.34 46.14,23.22 C45.22,21.1 43.96,19.24 42.36,17.64 C40.76,16.04 38.88,14.78 36.72,13.86 C34.56,12.94 32.28,12.48 29.88,12.48 C27.48,12.48 25.2,12.94 23.04,13.86 C20.88,14.78 19,16.04 17.4,17.64 C15.8,19.24 14.54,21.1 13.62,23.22 C12.7,25.34 12.24,27.6 12.24,30 L12.24,87.96 L0,75.6 L0,30 C0,25.92 0.78,22.06 2.34,18.42 C3.9,14.78 6.02,11.6 8.7,8.88 C11.38,6.16 14.54,4 18.18,2.4 C21.82,0.8 25.72,0 29.88,0 Z"></path></clipPath><clipPath id="i22"><path d="M30.0058537,0 L30.0058537,12.48 C27.6058537,12.48 25.3458537,12.94 23.2258537,13.86 C21.1058537,14.78 19.2458537,16.02 17.6458537,17.58 C16.0458537,19.14 14.7858537,21 13.8658537,23.16 C12.9458537,25.32 12.4858537,27.6 12.4858537,30 L12.4858537,60 L0.00585365854,60 L0.00585365854,30 C-0.0741463415,25.92 0.665853659,22.06 2.22585366,18.42 C3.78585366,14.78 5.92585366,11.6 8.64585366,8.88 C11.3658537,6.16 14.5658537,4 18.2458537,2.4 C21.9258537,0.8 25.8458537,0 30.0058537,0 Z"></path></clipPath><clipPath id="i23"><path d="M29.88,0 C33.96,0 37.82,0.78 41.46,2.34 C45.1,3.9 48.28,6.04 51,8.76 C53.72,11.48 55.88,14.66 57.48,18.3 C59.08,21.94 59.88,25.84 59.88,30 C59.88,34.16 59.08,38.06 57.48,41.7 C55.88,45.34 53.72,48.5 51,51.18 C48.28,53.86 45.1,55.98 41.46,57.54 C37.82,59.1 33.96,59.88 29.88,59.88 C25.72,59.88 21.82,59.1 18.18,57.54 C14.54,55.98 11.38,53.86 8.7,51.18 C6.02,48.5 3.9,45.34 2.34,41.7 C0.78,38.06 0,34.16 0,30 C0,25.84 0.78,21.94 2.34,18.3 C3.9,14.66 6.02,11.48 8.7,8.76 C11.38,6.04 14.54,3.9 18.18,2.34 C21.82,0.78 25.72,0 29.88,0 Z M29.88,12.48 C27.48,12.48 25.2,12.94 23.04,13.86 C20.88,14.78 19,16.02 17.4,17.58 C15.8,19.14 14.54,21 13.62,23.16 C12.7,25.32 12.24,27.6 12.24,30 C12.24,32.4 12.7,34.66 13.62,36.78 C14.54,38.9 15.8,40.74 17.4,42.3 C19,43.86 20.88,45.1 23.04,46.02 C25.2,46.94 27.48,47.4 29.88,47.4 C32.28,47.4 34.56,46.94 36.72,46.02 C38.88,45.1 40.74,43.86 42.3,42.3 C43.86,40.74 45.1,38.9 46.02,36.78 C46.94,34.66 47.4,32.4 47.4,30 C47.4,27.6 46.94,25.32 46.02,23.16 C45.1,21 43.86,19.14 42.3,17.58 C40.74,16.02 38.88,14.78 36.72,13.86 C34.56,12.94 32.28,12.48 29.88,12.48 Z"></path></clipPath><clipPath id="i24"><path d="M30,0 C34.16,0 38.06,0.78 41.7,2.34 C45.34,3.9 48.52,6.04 51.24,8.76 C53.96,11.48 56.1,14.66 57.66,18.3 C59.22,21.94 60,25.84 60,30 L60,60 L47.52,60 L47.52,30 C47.52,27.52 47.06,25.2 46.14,23.04 C45.22,20.88 43.96,19 42.36,17.4 C40.76,15.8 38.9,14.54 36.78,13.62 C34.66,12.7 32.4,12.24 30,12.24 C27.6,12.24 25.34,12.7 23.22,13.62 C21.1,14.54 19.24,15.8 17.64,17.4 C16.04,19 14.78,20.88 13.86,23.04 C12.94,25.2 12.48,27.52 12.48,30 C12.48,32.4 12.94,34.66 13.86,36.78 C14.78,38.9 16.04,40.76 17.64,42.36 C19.24,43.96 21.1,45.22 23.22,46.14 C25.34,47.06 27.6,47.52 30,47.52 C30.8,47.52 31.54,47.48 32.22,47.4 C32.9,47.32 33.6,47.2 34.32,47.04 L37.2,59.16 C33.6,59.72 31.2,60 30,60 C25.84,60 21.94,59.2 18.3,57.6 C14.66,56 11.48,53.84 8.76,51.12 C6.04,48.4 3.9,45.22 2.34,41.58 C0.78,37.94 0,34.08 0,30 C0,25.84 0.78,21.94 2.34,18.3 C3.9,14.66 6.04,11.48 8.76,8.76 C11.48,6.04 14.66,3.9 18.3,2.34 C21.94,0.78 25.84,0 30,0 Z"></path></clipPath><clipPath id="i25"><path d="M30.0058537,0 L30.0058537,12.48 C27.6058537,12.48 25.3458537,12.94 23.2258537,13.86 C21.1058537,14.78 19.2458537,16.02 17.6458537,17.58 C16.0458537,19.14 14.7858537,21 13.8658537,23.16 C12.9458537,25.32 12.4858537,27.6 12.4858537,30 L12.4858537,60 L0.00585365854,60 L0.00585365854,30 C-0.0741463415,25.92 0.665853659,22.06 2.22585366,18.42 C3.78585366,14.78 5.92585366,11.6 8.64585366,8.88 C11.3658537,6.16 14.5658537,4 18.2458537,2.4 C21.9258537,0.8 25.8458537,0 30.0058537,0 Z"></path></clipPath><clipPath id="i26"><path d="M30,0 C34.08,0 37.92,0.74 41.52,2.22 C45.12,3.7 48.24,5.72 50.88,8.28 L51.12,8.52 L42.12,17.16 C40.52,15.72 38.72,14.58 36.72,13.74 C34.72,12.9 32.48,12.48 30,12.48 C27.6,12.48 25.34,12.94 23.22,13.86 C21.1,14.78 19.24,16.04 17.64,17.64 C16.04,19.24 14.78,21.12 13.86,23.28 C12.94,25.44 12.48,27.72 12.48,30.12 C12.48,32.52 12.94,34.78 13.86,36.9 C14.78,39.02 16.04,40.88 17.64,42.48 C19.24,44.08 21.1,45.34 23.22,46.26 C25.34,47.18 27.6,47.64 30,47.64 C32.48,47.64 34.72,47.22 36.72,46.38 C38.72,45.54 40.52,44.4 42.12,42.96 L51.12,51.6 L50.88,51.84 C48.24,54.4 45.12,56.42 41.52,57.9 C37.92,59.38 34.08,60.12 30,60.12 C25.92,60.12 22.06,59.34 18.42,57.78 C14.78,56.22 11.6,54.08 8.88,51.36 C6.16,48.64 4,45.46 2.4,41.82 C0.8,38.18 0,34.28 0,30.12 C0,25.96 0.8,22.04 2.4,18.36 C4,14.68 6.16,11.48 8.88,8.76 C11.6,6.04 14.78,3.9 18.42,2.34 C22.06,0.78 25.92,0 30,0 Z"></path></clipPath></defs><g transform="translate(-231.0 -268.0)"><g clip-path="url(#i0)"><g transform="translate(231.59999999999988 268.88)"><g transform="translate(23.86142578125009 71.739384765625)"><g transform="translate(0.0 0.274658203125)"><g clip-path="url(#i1)"><polygon points="0,0 10.4699707,0 10.4699707,16.105957 0,16.105957 0,0" stroke="none" fill="#FFFFFF"></polygon></g></g><g transform="translate(11.9970703125 0.274658203125)"><g clip-path="url(#i2)"><polygon points="0,0 7.78930664,0 7.78930664,16.105957 0,16.105957 0,0" stroke="none" fill="#FFFFFF"></polygon></g></g><g transform="translate(21.708984375 4.449462890625)"><g clip-path="url(#i3)"><polygon points="0,0 8.82202148,0 8.82202148,12.1948242 0,12.1948242 0,0" stroke="none" fill="#FFFFFF"></polygon></g></g><g transform="translate(37.891845703125 0.274658203125)"><g clip-path="url(#i4)"><polygon points="0,0 10.0744629,0 10.0744629,16.105957 0,16.105957 0,0" stroke="none" fill="#FFFFFF"></polygon></g></g><g transform="translate(49.954833984375 4.449462890625)"><g clip-path="url(#i5)"><polygon points="0,0 5.1965332,0 5.1965332,11.9311523 0,11.9311523 0,0" stroke="none" fill="#FFFFFF"></polygon></g></g><g transform="translate(55.491943359375 4.449462890625)"><g clip-path="url(#i6)"><polygon points="0,0 8.96484375,0 8.96484375,12.1948242 0,12.1948242 0,0" stroke="none" fill="#FFFFFF"></polygon></g></g><g transform="translate(65.775146484375 0.274658203125)"><g clip-path="url(#i7)"><polygon points="0,0 8.30566406,0 8.30566406,16.3696289 0,16.3696289 0,0" stroke="none" fill="#FFFFFF"></polygon></g></g><g transform="translate(76.585693359375 4.713134765625)"><g clip-path="url(#i8)"><polygon points="0,0 7.75634766,0 7.75634766,11.9311523 0,11.9311523 0,0" stroke="none" fill="#FFFFFF"></polygon></g></g><g transform="translate(86.407470703125 4.449462890625)"><g clip-path="url(#i9)"><polygon points="0,0 8.33862305,0 8.33862305,12.1948242 0,12.1948242 0,0" stroke="none" fill="#FFFFFF"></polygon></g></g><g transform="translate(95.284423828125 0.63720703125)"><g clip-path="url(#i10)"><polygon points="0,0 4.65820312,0 4.65820312,15.8972168 0,15.8972168 0,0" stroke="none" fill="#FFFFFF"></polygon></g></g><g transform="translate(101.239013671875 0.274658203125)"><g clip-path="url(#i11)"><polygon points="0,0 1.61499023,0 1.61499023,16.105957 0,16.105957 0,0" stroke="none" fill="#FFFFFF"></polygon></g></g><g transform="translate(104.732666015625 4.449462890625)"><g clip-path="url(#i6)"><polygon points="0,0 8.96484375,0 8.96484375,12.1948242 0,12.1948242 0,0" stroke="none" fill="#FFFFFF"></polygon></g></g><g transform="translate(115.59814453125 4.449462890625)"><g clip-path="url(#i12)"><polygon points="0,0 7.77832031,0 7.77832031,11.9311523 0,11.9311523 0,0" stroke="none" fill="#FFFFFF"></polygon></g></g><g transform="translate(130.440673828125 4.449462890625)"><g clip-path="url(#i13)"><polygon points="0,0 8.81103516,0 8.81103516,12.1948242 0,12.1948242 0,0" stroke="none" fill="#FFFFFF"></polygon></g></g><g transform="translate(141.251220703125 4.449462890625)"><g clip-path="url(#i12)"><polygon points="0,0 7.77832031,0 7.77832031,11.9311523 0,11.9311523 0,0" stroke="none" fill="#FFFFFF"></polygon></g></g><g transform="translate(150.93017578125 0.274658203125)"><g clip-path="url(#i7)"><polygon points="0,0 8.30566406,0 8.30566406,16.3696289 0,16.3696289 0,0" stroke="none" fill="#FFFFFF"></polygon></g></g><g transform="translate(165.69580078125 0.274658203125)"><g clip-path="url(#i14)"><polygon points="0,0 12.3596191,0 12.3596191,16.105957 0,16.105957 0,0" stroke="none" fill="#FFFFFF"></polygon></g></g><g transform="translate(179.208984375 4.449462890625)"><g clip-path="url(#i5)"><polygon points="0,0 5.1965332,0 5.1965332,11.9311523 0,11.9311523 0,0" stroke="none" fill="#FFFFFF"></polygon></g></g><g transform="translate(184.8779296875 4.449462890625)"><g clip-path="url(#i9)"><polygon points="0,0 8.33862305,0 8.33862305,12.1948242 0,12.1948242 0,0" stroke="none" fill="#FFFFFF"></polygon></g></g><g transform="translate(194.578857421875 0.274658203125)"><g clip-path="url(#i2)"><polygon points="0,0 7.78930664,0 7.78930664,16.105957 0,16.105957 0,0" stroke="none" fill="#FFFFFF"></polygon></g></g><g transform="translate(204.840087890625 0.274658203125)"><g clip-path="url(#i11)"><polygon points="0,0 1.61499023,0 1.61499023,16.105957 0,16.105957 0,0" stroke="none" fill="#FFFFFF"></polygon></g></g><g transform="translate(207.982177734375 4.713134765625)"><g clip-path="url(#i15)"><polygon points="0,0 8.77807617,0 8.77807617,11.6674805 0,11.6674805 0,0" stroke="none" fill="#FFFFFF"></polygon></g></g><g transform="translate(218.16650390625 0.274658203125)"><g clip-path="url(#i11)"><polygon points="0,0 1.61499023,0 1.61499023,16.105957 0,16.105957 0,0" stroke="none" fill="#FFFFFF"></polygon></g></g><g transform="translate(222.264404296875 4.449462890625)"><g clip-path="url(#i12)"><polygon points="0,0 7.77832031,0 7.77832031,11.9311523 0,11.9311523 0,0" stroke="none" fill="#FFFFFF"></polygon></g></g><g transform="translate(231.8994140625 4.449462890625)"><g clip-path="url(#i16)"><polygon points="0,0 8.42651367,0 8.42651367,16.6662598 0,16.6662598 0,0" stroke="none" fill="#FFFFFF"></polygon></g></g><g transform="translate(247.56591796875 0.0)"><g clip-path="url(#i17)"><polygon points="0,0 10.513916,0 10.513916,16.6662598 0,16.6662598 0,0" stroke="none" fill="#FFFFFF"></polygon></g></g><g transform="translate(259.332275390625 4.713134765625)"><g clip-path="url(#i18)"><polygon points="0,0 8.76708984,0 8.76708984,16.4025879 0,16.4025879 0,0" stroke="none" fill="#FFFFFF"></polygon></g></g><g transform="translate(268.83544921875 4.449462890625)"><g clip-path="url(#i19)"><polygon points="0,0 7.94311523,0 7.94311523,12.2058105 0,12.2058105 0,0" stroke="none" fill="#FFFFFF"></polygon></g></g><g transform="translate(277.855224609375 0.63720703125)"><g clip-path="url(#i10)"><polygon points="0,0 4.65820312,0 4.65820312,15.8972168 0,15.8972168 0,0" stroke="none" fill="#FFFFFF"></polygon></g></g><g transform="translate(283.260498046875 4.449462890625)"><g clip-path="url(#i3)"><polygon points="0,0 8.82202148,0 8.82202148,12.1948242 0,12.1948242 0,0" stroke="none" fill="#FFFFFF"></polygon></g></g><g transform="translate(294.093017578125 4.449462890625)"><g clip-path="url(#i20)"><polygon points="0,0 12.9638672,0 12.9638672,11.9311523 0,11.9311523 0,0" stroke="none" fill="#FFFFFF"></polygon></g></g></g><g transform="translate(0.0 0.12000000000000455)"><g clip-path="url(#i21)"><polygon points="0,0 60,0 60,87.96 0,87.96 0,0" stroke="none" fill="#FFFFFF"></polygon></g></g><g transform="translate(68.95414634146346 0.12000000000000455)"><g clip-path="url(#i22)"><polygon points="-5.1209037e-15,0 30.0058537,0 30.0058537,60 -5.1209037e-15,60 -5.1209037e-15,0" stroke="none" fill="#FFFFFF"></polygon></g></g><g transform="translate(104.44000000000011 0.12000000000000455)"><g clip-path="url(#i23)"><polygon points="0,0 59.88,0 59.88,59.88 0,59.88 0,0" stroke="none" fill="#FFFFFF"></polygon></g></g><g transform="translate(174.96 0.12000000000000455)"><g clip-path="url(#i24)"><polygon points="0,0 60,0 60,60 0,60 0,0" stroke="none" fill="#FFD601"></polygon></g></g><g transform="translate(246.1941463414637 0.12000000000000455)"><g clip-path="url(#i25)"><polygon points="-7.00307867e-15,0 30.0058537,0 30.0058537,60 -7.00307867e-15,60 -7.00307867e-15,0" stroke="none" fill="#FFD601"></polygon></g></g><g transform="translate(281.4400000000001 7.105427357601002e-15)"><g clip-path="url(#i26)"><polygon points="0,0 51.12,0 51.12,60.12 0,60.12 0,0" stroke="none" fill="#FFD601"></polygon></g></g></g></g></g></svg>